# xmcd
#
# Track frame offsets: 
#        150
#        15473
#        33212
#        55573
#        77069
#        98932
#        116589
#        135300
#        160391
#        178024
#        199228
#        216957
#        248343
#
# Disc length: 3477 seconds
#
# Revision: 0
# Processed by: cddbd v1.5.2PL0 Copyright (c) Steve Scherf et al.
# Submitted via: ExactAudioCopyFreeDBPlugin 1.0
#
DISCID=a00d930d
DTITLE=Grammatrain - Imperium
DYEAR=2010
DGENRE=Hard Rock
TTITLE0=Damaged
TTITLE1=Forever
TTITLE2=With My Hands
TTITLE3=Firing Line
TTITLE4=The Hive
TTITLE5=Controlling Me
TTITLE6=Straight Down
TTITLE7=All
TTITLE8=Enemy
TTITLE9=Child Of Angels
TTITLE10=The Last Sound
TTITLE11=Atmosphere
TTITLE12=Ascension
EXTD=
EXTT0=
EXTT1=
EXTT2=
EXTT3=
EXTT4=
EXTT5=
EXTT6=
EXTT7=
EXTT8=
EXTT9=
EXTT10=
EXTT11=
EXTT12=
PLAYORDER=
